<?xml version="1.0" encoding="UTF-8" standalone="no"?>
<!-- Created with Inkscape (http://www.inkscape.org/) -->

<svg
   version="1.1"
   id="svg1"
   width="288"
   height="288"
   viewBox="0 0 288 288"
   xmlns="http://www.w3.org/2000/svg"
   xmlns:svg="http://www.w3.org/2000/svg">
  <defs
     id="defs1">
    <clipPath
       clipPathUnits="userSpaceOnUse"
       id="clipPath2">
      <path
         d="M 0,216 H 216 V 0 H 0 Z"
         id="path2" />
    </clipPath>
    <clipPath
       clipPathUnits="userSpaceOnUse"
       id="clipPath4">
      <path
         d="M 0,216 H 216 V 0 H 0 Z"
         transform="translate(-109.2871,-123.36381)"
         id="path4" />
    </clipPath>
    <clipPath
       clipPathUnits="userSpaceOnUse"
       id="clipPath6">
      <path
         d="M 0,216 H 216 V 0 H 0 Z"
         transform="translate(-76.058102,-99.1582)"
         id="path6" />
    </clipPath>
    <clipPath
       clipPathUnits="userSpaceOnUse"
       id="clipPath8">
      <path
         d="M 0,216 H 216 V 0 H 0 Z"
         transform="translate(-174.4473,-78.698199)"
         id="path8" />
    </clipPath>
  </defs>
  <g
     id="layer-MC0">
    <path
       id="path1"
       d="M 216,0 H 0 v 216 h 216 z"
       style="fill:none;stroke:#231f20;stroke-width:2;stroke-linecap:butt;stroke-linejoin:miter;stroke-miterlimit:10;stroke-dasharray:none;stroke-opacity:1"
       transform="matrix(1.3333333,0,0,-1.3333333,0,288)"
       clip-path="url(#clipPath2)" />
    <path
       id="path3"
       d="m 0,0 -0.281,-29.904 c 0,0 18.241,-2.319 18.214,15.934 C 17.911,0.757 0,0 0,0"
       style="fill:#231f20;fill-opacity:1;fill-rule:nonzero;stroke:none"
       transform="matrix(1.3333333,0,0,-1.3333333,145.71613,123.51493)"
       clip-path="url(#clipPath4)" />
    <path
       id="path5"
       d="M 0,0 -0.173,19.401 -12.676,0 Z"
       style="fill:#231f20;fill-opacity:1;fill-rule:nonzero;stroke:none"
       transform="matrix(1.3333333,0,0,-1.3333333,101.4108,155.78907)"
       clip-path="url(#clipPath6)" />
    <path
       id="path7"
       d="m 0,0 h -3.673 c 0,0 9.767,11.615 9.97,29.766 C 6.455,44 -3.354,59.271 -3.354,59.271 h 3.092 c 0,0 10.658,-12.144 10.927,-29.544 C 10.956,11.002 0,0 0,0 m -13.378,0 h -3.411 c 0,0 9.719,12.79 9.969,29.727 0.24,16.33 -9.969,29.544 -9.969,29.544 h 3.411 c 0,0 11.935,-12.594 11.019,-31.46 C -3.229,9.942 -13.378,0 -13.378,0 m -13.119,0 h -3.376 c 0,0 9.94,14.086 9.604,30.268 -0.324,15.68 -9.604,29.003 -9.604,29.003 h 3.114 c 0,0 11.361,-15.389 11.136,-27.39 C -16.045,9.232 -26.497,0 -26.497,0 m -29.119,-1.104 h -24.13 v 61.683 h 24.255 c 0,0 25.821,-4.998 26.1,-30.571 C -29.098,3.065 -55.616,-1.104 -55.616,-1.104 M -83.87,-1.217 h -15.034 l -0.265,7.863 -19.937,0.008 -5.332,-7.871 -22.113,-0.059 44.154,61.942 H -83.87 Z M 28.746,37.351 C 26.32,71.117 14.592,87.326 7.854,94.144 c -5.714,5.782 -12.173,6.31 -12.173,6.31 L -125.681,99.74 c 0,0 -6.723,-0.279 -12.591,-4.56 -22.99,-16.777 -21.953,-65.453 -21.953,-65.453 0,0 -4.595,-40.978 22.44,-65.395 4.731,-4.273 9.469,-4.252 9.469,-4.252 l 123.545,0.044 c 0,0 6.09,-0.002 13.077,6.011 8.064,6.939 23.396,30.094 20.44,71.216"
       style="fill:#231f20;fill-opacity:1;fill-rule:nonzero;stroke:none"
       transform="matrix(1.3333333,0,0,-1.3333333,232.5964,183.06907)"
       clip-path="url(#clipPath8)" />
  </g>
</svg>
