<?xml version="1.0" encoding="UTF-8" standalone="no"?>
<!-- Created with Inkscape (http://www.inkscape.org/) -->

<svg
   version="1.1"
   id="svg1"
   width="288"
   height="288"
   viewBox="0 0 288 288"
   xmlns="http://www.w3.org/2000/svg"
   xmlns:svg="http://www.w3.org/2000/svg">
  <defs
     id="defs1">
    <radialGradient
       fx="0.096662201"
       fy="-0.99531698"
       cx="0"
       cy="0"
       r="1"
       gradientUnits="userSpaceOnUse"
       gradientTransform="matrix(-57.821258,-36.996433,-36.996433,57.821258,71.439461,178.80911)"
       spreadMethod="pad"
       id="radialGradient5">
      <stop
         style="stop-opacity:1;stop-color:#8c8a8b"
         offset="0"
         id="stop1" />
      <stop
         style="stop-opacity:1;stop-color:#8c8a8b"
         offset="0.153374"
         id="stop2" />
      <stop
         style="stop-opacity:1;stop-color:#231f20"
         offset="0.466258"
         id="stop3" />
      <stop
         style="stop-opacity:1;stop-color:#231f20"
         offset="0.619632"
         id="stop4" />
      <stop
         style="stop-opacity:1;stop-color:#231f20"
         offset="1"
         id="stop5" />
    </radialGradient>
    <radialGradient
       fx="0.096662201"
       fy="-0.99531698"
       cx="0"
       cy="0"
       r="1"
       gradientUnits="userSpaceOnUse"
       gradientTransform="matrix(-57.821266,-36.996437,-36.996437,57.821266,140.43846,178.80911)"
       spreadMethod="pad"
       id="radialGradient10">
      <stop
         style="stop-opacity:1;stop-color:#8c8a8b"
         offset="0"
         id="stop6" />
      <stop
         style="stop-opacity:1;stop-color:#8c8a8b"
         offset="0.153374"
         id="stop7" />
      <stop
         style="stop-opacity:1;stop-color:#231f20"
         offset="0.466258"
         id="stop8" />
      <stop
         style="stop-opacity:1;stop-color:#231f20"
         offset="0.619632"
         id="stop9" />
      <stop
         style="stop-opacity:1;stop-color:#231f20"
         offset="1"
         id="stop10" />
    </radialGradient>
    <radialGradient
       fx="0.096662201"
       fy="-0.99531698"
       cx="0"
       cy="0"
       r="1"
       gradientUnits="userSpaceOnUse"
       gradientTransform="matrix(-57.821258,-36.996433,-36.996433,57.821258,71.439461,126.27982)"
       spreadMethod="pad"
       id="radialGradient15">
      <stop
         style="stop-opacity:1;stop-color:#8c8a8b"
         offset="0"
         id="stop11" />
      <stop
         style="stop-opacity:1;stop-color:#8c8a8b"
         offset="0.153374"
         id="stop12" />
      <stop
         style="stop-opacity:1;stop-color:#231f20"
         offset="0.466258"
         id="stop13" />
      <stop
         style="stop-opacity:1;stop-color:#231f20"
         offset="0.619632"
         id="stop14" />
      <stop
         style="stop-opacity:1;stop-color:#231f20"
         offset="1"
         id="stop15" />
    </radialGradient>
    <radialGradient
       fx="0.096662201"
       fy="-0.99531698"
       cx="0"
       cy="0"
       r="1"
       gradientUnits="userSpaceOnUse"
       gradientTransform="matrix(-57.821266,-36.996437,-36.996437,57.821266,140.43846,126.27982)"
       spreadMethod="pad"
       id="radialGradient20">
      <stop
         style="stop-opacity:1;stop-color:#8c8a8b"
         offset="0"
         id="stop16" />
      <stop
         style="stop-opacity:1;stop-color:#8c8a8b"
         offset="0.153374"
         id="stop17" />
      <stop
         style="stop-opacity:1;stop-color:#231f20"
         offset="0.466258"
         id="stop18" />
      <stop
         style="stop-opacity:1;stop-color:#231f20"
         offset="0.619632"
         id="stop19" />
      <stop
         style="stop-opacity:1;stop-color:#231f20"
         offset="1"
         id="stop20" />
    </radialGradient>
    <radialGradient
       fx="0.096662201"
       fy="-0.99531698"
       cx="0"
       cy="0"
       r="1"
       gradientUnits="userSpaceOnUse"
       gradientTransform="matrix(-57.821258,-36.996433,-36.996433,57.821258,71.439461,73.750015)"
       spreadMethod="pad"
       id="radialGradient25">
      <stop
         style="stop-opacity:1;stop-color:#8c8a8b"
         offset="0"
         id="stop21" />
      <stop
         style="stop-opacity:1;stop-color:#8c8a8b"
         offset="0.153374"
         id="stop22" />
      <stop
         style="stop-opacity:1;stop-color:#231f20"
         offset="0.466258"
         id="stop23" />
      <stop
         style="stop-opacity:1;stop-color:#231f20"
         offset="0.619632"
         id="stop24" />
      <stop
         style="stop-opacity:1;stop-color:#231f20"
         offset="1"
         id="stop25" />
    </radialGradient>
    <radialGradient
       fx="0.096662201"
       fy="-0.99531698"
       cx="0"
       cy="0"
       r="1"
       gradientUnits="userSpaceOnUse"
       gradientTransform="matrix(-57.821266,-36.996437,-36.996437,57.821266,140.43846,73.750015)"
       spreadMethod="pad"
       id="radialGradient30">
      <stop
         style="stop-opacity:1;stop-color:#8c8a8b"
         offset="0"
         id="stop26" />
      <stop
         style="stop-opacity:1;stop-color:#8c8a8b"
         offset="0.153374"
         id="stop27" />
      <stop
         style="stop-opacity:1;stop-color:#231f20"
         offset="0.466258"
         id="stop28" />
      <stop
         style="stop-opacity:1;stop-color:#231f20"
         offset="0.619632"
         id="stop29" />
      <stop
         style="stop-opacity:1;stop-color:#231f20"
         offset="1"
         id="stop30" />
    </radialGradient>
    <clipPath
       clipPathUnits="userSpaceOnUse"
       id="clipPath32">
      <path
         d="M 0,216 H 216 V 0 H 0 Z"
         transform="translate(-62.271502,-25.154303)"
         id="path32" />
    </clipPath>
    <clipPath
       clipPathUnits="userSpaceOnUse"
       id="clipPath34">
      <path
         d="M 0,216 H 216 V 0 H 0 Z"
         transform="translate(-82.2886,-41.000004)"
         id="path34" />
    </clipPath>
    <clipPath
       clipPathUnits="userSpaceOnUse"
       id="clipPath36">
      <path
         d="M 0,216 H 216 V 0 H 0 Z"
         transform="translate(-104.4922,-29.908201)"
         id="path36" />
    </clipPath>
    <clipPath
       clipPathUnits="userSpaceOnUse"
       id="clipPath38">
      <path
         d="M 0,216 H 216 V 0 H 0 Z"
         id="path38" />
    </clipPath>
    <clipPath
       clipPathUnits="userSpaceOnUse"
       id="clipPath40">
      <path
         d="M 0,216 H 216 V 0 H 0 Z"
         id="path40" />
    </clipPath>
    <clipPath
       clipPathUnits="userSpaceOnUse"
       id="clipPath42">
      <path
         d="M 0,216 H 216 V 0 H 0 Z"
         id="path42" />
    </clipPath>
    <clipPath
       clipPathUnits="userSpaceOnUse"
       id="clipPath44">
      <path
         d="M 0,216 H 216 V 0 H 0 Z"
         transform="translate(-159.0879,-36.146498)"
         id="path44" />
    </clipPath>
    <clipPath
       clipPathUnits="userSpaceOnUse"
       id="clipPath46">
      <path
         d="M 0,216 H 216 V 0 H 0 Z"
         id="path46" />
    </clipPath>
  </defs>
  <g
     id="layer-MC0">
    <path
       id="path5"
       d="m 60.169,184.809 c 0,-6.776 5.494,-12.269 12.27,-12.269 v 0 c 6.777,0 12.27,5.493 12.27,12.269 v 0 c 0,6.778 -5.493,12.269 -12.27,12.269 v 0 c -6.776,0 -12.27,-5.491 -12.27,-12.269"
       transform="matrix(1.3333333,0,0,-1.3333333,0,288)"
       style="fill:url(#radialGradient5);stroke:none" />
    <path
       id="path10"
       d="m 129.169,184.809 c 0,-6.776 5.494,-12.269 12.27,-12.269 v 0 c 6.777,0 12.269,5.493 12.269,12.269 v 0 c 0,6.778 -5.492,12.269 -12.269,12.269 v 0 c -6.776,0 -12.27,-5.491 -12.27,-12.269"
       transform="matrix(1.3333333,0,0,-1.3333333,0,288)"
       style="fill:url(#radialGradient10);stroke:none" />
    <path
       id="path15"
       d="m 60.169,132.28 c 0,-6.777 5.494,-12.27 12.27,-12.27 v 0 c 6.777,0 12.27,5.493 12.27,12.27 v 0 c 0,6.776 -5.493,12.269 -12.27,12.269 v 0 c -6.776,0 -12.27,-5.493 -12.27,-12.269"
       transform="matrix(1.3333333,0,0,-1.3333333,0,288)"
       style="fill:url(#radialGradient15);stroke:none" />
    <path
       id="path20"
       d="m 129.169,132.28 c 0,-6.777 5.494,-12.27 12.27,-12.27 v 0 c 6.777,0 12.269,5.493 12.269,12.27 v 0 c 0,6.776 -5.492,12.269 -12.269,12.269 v 0 c -6.776,0 -12.27,-5.493 -12.27,-12.269"
       transform="matrix(1.3333333,0,0,-1.3333333,0,288)"
       style="fill:url(#radialGradient20);stroke:none" />
    <path
       id="path25"
       d="m 60.169,79.75 c 0,-6.777 5.494,-12.27 12.27,-12.27 v 0 c 6.777,0 12.27,5.493 12.27,12.27 v 0 c 0,6.775 -5.493,12.27 -12.27,12.27 v 0 c -6.776,0 -12.27,-5.495 -12.27,-12.27"
       transform="matrix(1.3333333,0,0,-1.3333333,0,288)"
       style="fill:url(#radialGradient25);stroke:none" />
    <path
       id="path30"
       d="m 129.169,79.75 c 0,-6.777 5.494,-12.27 12.27,-12.27 v 0 c 6.777,0 12.269,5.493 12.269,12.27 v 0 c 0,6.775 -5.492,12.27 -12.269,12.27 v 0 c -6.776,0 -12.27,-5.495 -12.27,-12.27"
       transform="matrix(1.3333333,0,0,-1.3333333,0,288)"
       style="fill:url(#radialGradient30);stroke:none" />
    <path
       id="path31"
       d="M 0,0 C 0.615,0 1.204,0.061 1.765,0.182 2.327,0.303 2.821,0.502 3.25,0.783 3.677,1.064 4.018,1.445 4.272,1.926 4.526,2.408 4.653,3.023 4.653,3.771 4.653,5.242 4.238,6.293 3.41,6.92 2.581,7.549 1.484,7.863 0.121,7.863 h -6.86 V 0 Z m -0.361,12.156 c 1.123,0 2.046,0.266 2.768,0.803 0.722,0.533 1.083,1.402 1.083,2.607 0,0.668 -0.12,1.215 -0.361,1.645 -0.241,0.428 -0.562,0.762 -0.962,1.002 -0.402,0.24 -0.863,0.408 -1.385,0.502 -0.521,0.094 -1.063,0.14 -1.624,0.14 h -5.897 v -6.699 z m 0.802,11.592 c 1.364,0 2.608,-0.119 3.731,-0.359 1.123,-0.243 2.086,-0.637 2.889,-1.184 0.802,-0.549 1.423,-1.277 1.865,-2.187 0.441,-0.909 0.661,-2.032 0.661,-3.37 0,-1.443 -0.327,-2.646 -0.982,-3.609 C 7.949,12.076 6.98,11.287 5.696,10.672 7.461,10.164 8.778,9.273 9.648,8.004 10.517,6.732 10.952,5.201 10.952,3.41 10.952,1.967 10.671,0.717 10.109,-0.34 9.547,-1.396 8.792,-2.26 7.843,-2.928 6.893,-3.596 5.81,-4.09 4.593,-4.412 3.376,-4.732 2.126,-4.893 0.843,-4.893 h -13.88 v 28.641 z"
       style="fill:#231f20;fill-opacity:1;fill-rule:nonzero;stroke:none"
       transform="matrix(1.3333333,0,0,-1.3333333,83.028667,254.46093)"
       clip-path="url(#clipPath32)" />
    <path
       id="path33"
       d="m 0,0 v -3.85 h 0.081 c 0.267,0.641 0.627,1.237 1.083,1.786 0.454,0.546 0.976,1.015 1.564,1.402 0.588,0.389 1.217,0.689 1.885,0.904 0.669,0.213 1.365,0.32 2.086,0.32 0.375,0 0.789,-0.066 1.244,-0.201 V -4.934 C 7.675,-4.881 7.354,-4.834 6.98,-4.793 6.605,-4.754 6.244,-4.732 5.897,-4.732 4.854,-4.732 3.972,-4.906 3.25,-5.254 2.527,-5.602 1.946,-6.076 1.504,-6.678 1.063,-7.279 0.749,-7.982 0.562,-8.785 0.375,-9.586 0.281,-10.457 0.281,-11.393 v -9.345 H -5.416 V 0 Z"
       style="fill:#231f20;fill-opacity:1;fill-rule:nonzero;stroke:none"
       transform="matrix(1.3333333,0,0,-1.3333333,109.71813,233.33333)"
       clip-path="url(#clipPath34)" />
    <path
       id="path35"
       d="M 0,0 C -0.361,-0.119 -0.749,-0.221 -1.164,-0.301 -1.578,-0.381 -2.013,-0.447 -2.467,-0.5 -2.922,-0.555 -3.376,-0.621 -3.831,-0.701 -4.259,-0.781 -4.68,-0.889 -5.095,-1.021 -5.51,-1.156 -5.871,-1.336 -6.178,-1.564 -6.485,-1.791 -6.733,-2.078 -6.92,-2.426 -7.107,-2.773 -7.201,-3.215 -7.201,-3.75 c 0,-0.508 0.094,-0.936 0.281,-1.283 0.187,-0.348 0.441,-0.623 0.762,-0.822 0.321,-0.202 0.696,-0.342 1.123,-0.422 0.428,-0.08 0.869,-0.121 1.325,-0.121 1.123,0 1.991,0.187 2.607,0.562 0.615,0.375 1.069,0.822 1.364,1.344 0.294,0.521 0.474,1.049 0.541,1.584 0.067,0.535 0.1,0.963 0.1,1.285 V 0.502 C 0.662,0.287 0.361,0.121 0,0 m -11.252,8.043 c 0.587,0.883 1.336,1.592 2.246,2.127 0.909,0.535 1.932,0.916 3.069,1.143 1.136,0.226 2.28,0.341 3.43,0.341 1.043,0 2.099,-0.074 3.169,-0.22 C 1.731,11.287 2.708,10.998 3.59,10.57 4.473,10.143 5.195,9.549 5.756,8.785 6.318,8.023 6.6,7.014 6.6,5.758 V -5.033 c 0,-0.938 0.052,-1.832 0.16,-2.688 0.105,-0.857 0.293,-1.498 0.56,-1.925 H 1.544 c -0.107,0.32 -0.194,0.648 -0.26,0.982 -0.067,0.334 -0.115,0.676 -0.141,1.023 -0.909,-0.937 -1.979,-1.591 -3.209,-1.966 -1.23,-0.373 -2.487,-0.561 -3.771,-0.561 -0.99,0 -1.912,0.119 -2.767,0.361 -0.857,0.241 -1.605,0.614 -2.247,1.123 -0.642,0.508 -1.144,1.149 -1.504,1.926 -0.361,0.776 -0.542,1.697 -0.542,2.768 0,1.176 0.207,2.146 0.622,2.908 0.414,0.762 0.949,1.369 1.605,1.824 0.654,0.455 1.403,0.797 2.246,1.024 0.842,0.226 1.691,0.408 2.547,0.541 0.856,0.134 1.698,0.242 2.527,0.322 0.829,0.08 1.565,0.199 2.207,0.359 0.642,0.162 1.149,0.395 1.524,0.703 0.374,0.307 0.548,0.756 0.521,1.344 0,0.615 -0.1,1.104 -0.3,1.465 -0.201,0.359 -0.469,0.641 -0.803,0.842 -0.334,0.201 -0.722,0.334 -1.163,0.4 -0.441,0.067 -0.916,0.102 -1.424,0.102 -1.123,0 -2.006,-0.242 -2.648,-0.723 -0.642,-0.48 -1.016,-1.283 -1.123,-2.406 h -5.696 c 0.08,1.336 0.414,2.447 1.003,3.328"
       style="fill:#231f20;fill-opacity:1;fill-rule:nonzero;stroke:none"
       transform="matrix(1.3333333,0,0,-1.3333333,139.32293,248.1224)"
       clip-path="url(#clipPath36)" />
    <path
       id="path37"
       d="m 121.359,20.262 h -5.695 V 41 h 5.695 z m -5.695,28.64 h 5.695 v -4.693 h -5.695 z"
       style="fill:#231f20;fill-opacity:1;fill-rule:nonzero;stroke:none"
       transform="matrix(1.3333333,0,0,-1.3333333,0,288)"
       clip-path="url(#clipPath38)" />
    <path
       id="path39"
       d="m 131.709,20.262 h -5.695 v 28.641 h 5.695 z"
       style="fill:#231f20;fill-opacity:1;fill-rule:nonzero;stroke:none"
       transform="matrix(1.3333333,0,0,-1.3333333,0,288)"
       clip-path="url(#clipPath40)" />
    <path
       id="path41"
       d="m 142.059,20.262 h -5.695 v 28.641 h 5.695 z"
       style="fill:#231f20;fill-opacity:1;fill-rule:nonzero;stroke:none"
       transform="matrix(1.3333333,0,0,-1.3333333,0,288)"
       clip-path="url(#clipPath42)" />
    <path
       id="path43"
       d="M 0,0 C -0.683,0.748 -1.719,1.123 -3.109,1.123 -4.02,1.123 -4.774,0.969 -5.376,0.662 -5.978,0.354 -6.459,-0.027 -6.82,-0.48 -7.182,-0.936 -7.436,-1.418 -7.582,-1.926 -7.729,-2.434 -7.816,-2.889 -7.843,-3.289 H 1.424 C 1.156,-1.846 0.682,-0.748 0,0 m -6.439,-10.91 c 0.855,-0.83 2.085,-1.244 3.691,-1.244 1.149,0 2.139,0.287 2.969,0.861 0.828,0.576 1.336,1.184 1.523,1.826 h 5.015 c -0.802,-2.486 -2.032,-4.265 -3.691,-5.336 -1.658,-1.07 -3.664,-1.603 -6.017,-1.603 -1.631,0 -3.103,0.26 -4.412,0.781 -1.311,0.521 -2.421,1.264 -3.33,2.227 -0.91,0.962 -1.612,2.113 -2.106,3.451 -0.496,1.336 -0.742,2.806 -0.742,4.412 0,1.551 0.254,2.994 0.762,4.332 0.507,1.336 1.23,2.494 2.166,3.471 0.935,0.974 2.052,1.744 3.349,2.306 1.297,0.561 2.735,0.842 4.313,0.842 1.765,0 3.303,-0.342 4.613,-1.023 C 2.975,3.711 4.051,2.795 4.894,1.645 5.736,0.494 6.344,-0.816 6.719,-2.287 7.093,-3.758 7.227,-5.295 7.12,-6.9 H -7.843 c 0.08,-1.844 0.548,-3.182 1.404,-4.01"
       style="fill:#231f20;fill-opacity:1;fill-rule:nonzero;stroke:none"
       transform="matrix(1.3333333,0,0,-1.3333333,212.1172,239.80467)"
       clip-path="url(#clipPath44)" />
    <path
       id="path45"
       d="M 215.738,0.408 H -0.26 v 216 h 215.998 z"
       style="fill:none;stroke:#231f20;stroke-width:2;stroke-linecap:butt;stroke-linejoin:miter;stroke-miterlimit:10;stroke-dasharray:none;stroke-opacity:1"
       transform="matrix(1.3333333,0,0,-1.3333333,0,288)"
       clip-path="url(#clipPath46)" />
  </g>
</svg>
