<?xml version="1.0" encoding="UTF-8" standalone="no"?>
<!-- Created with Inkscape (http://www.inkscape.org/) -->

<svg
   version="1.1"
   id="svg1"
   width="288"
   height="288"
   viewBox="0 0 288 288"
   xmlns="http://www.w3.org/2000/svg"
   xmlns:svg="http://www.w3.org/2000/svg">
  <defs
     id="defs1">
    <clipPath
       clipPathUnits="userSpaceOnUse"
       id="clipPath2">
      <path
         d="M 0,216 H 216 V 0 H 0 Z"
         id="path2" />
    </clipPath>
    <clipPath
       clipPathUnits="userSpaceOnUse"
       id="clipPath4">
      <path
         d="M 0,216 H 216 V 0 H 0 Z"
         transform="translate(-73.917002,-100.0527)"
         id="path4" />
    </clipPath>
    <clipPath
       clipPathUnits="userSpaceOnUse"
       id="clipPath6">
      <path
         d="M 0,216 H 216 V 0 H 0 Z"
         transform="translate(-165.00681,-100.0527)"
         id="path6" />
    </clipPath>
  </defs>
  <g
     id="layer-MC0">
    <path
       id="path1"
       d="m 215.887,0.309 h -216 v 216 h 216 z"
       style="fill:none;stroke:#231f20;stroke-width:2;stroke-linecap:butt;stroke-linejoin:miter;stroke-miterlimit:10;stroke-dasharray:none;stroke-opacity:1"
       transform="matrix(1.3333333,0,0,-1.3333333,0,288)"
       clip-path="url(#clipPath2)" />
    <path
       id="path3"
       d="M 0,0 28.311,0.166 C 28.311,-8 20,-29.988 -13,-29.988 c -19,0 -39.872,14.494 -38.387,38.677 C -49.25,43.5 -20.396,46.499 -10,46.5 16.75,46.502 26.998,27.159 27.621,16.894 l -28.4,-0.006 c -0.833,3.147 -1.158,10.737 -10.801,10.331 -11.17,-0.47 -12.279,-12.261 -12.279,-19.052 0,-6.054 0.576,-20.278 14.269,-18.501 C -5.24,-9.77 -0.25,-8.25 0,0"
       style="fill:#231f20;fill-opacity:1;fill-rule:nonzero;stroke:none"
       transform="matrix(1.3333333,0,0,-1.3333333,98.556,154.5964)"
       clip-path="url(#clipPath4)" />
    <path
       id="path5"
       d="M 0,0 28.31,0.166 C 28.31,-8 20,-29.988 -13,-29.988 c -19,0 -39.872,14.494 -38.388,38.677 C -49.25,43.5 -20.397,46.499 -10,46.5 16.75,46.502 26.997,27.159 27.62,16.894 L -0.78,16.888 C -1.612,20.035 -1.938,27.625 -11.581,27.219 -22.75,26.749 -23.86,14.958 -23.86,8.167 c 0,-6.054 0.577,-20.278 14.27,-18.501 C -5.241,-9.77 -0.25,-8.25 0,0"
       style="fill:#231f20;fill-opacity:1;fill-rule:nonzero;stroke:none"
       transform="matrix(1.3333333,0,0,-1.3333333,220.00907,154.5964)"
       clip-path="url(#clipPath6)" />
  </g>
</svg>
