<?xml version="1.0" encoding="utf-8"?>
<!-- Generator: Adobe Illustrator 24.2.3, SVG Export Plug-In . SVG Version: 6.00 Build 0)  -->
<svg version="1.1" id="Layer_1" xmlns="http://www.w3.org/2000/svg" xmlns:xlink="http://www.w3.org/1999/xlink" x="0px" y="0px"
	 viewBox="0 0 340.2 340.2" style="enable-background:new 0 0 340.2 340.2;" xml:space="preserve">
<style type="text/css">
	.st0{fill:#000000;}
</style>
<path class="st0" d="M236.3,212.5c-14.7,24.2-41.3,40.4-71.6,40.4c-46.3,0-83.8-37.5-83.8-83.8c0-46.3,37.5-83.8,83.8-83.8
	c36.4,0,67.4,23.2,78.9,55.6h29.6C261.4,94.1,219,59.4,168.5,59.4c-59.6,0-107.9,48.3-107.9,107.9c0,59.6,48.3,107.9,107.9,107.9
	c43.4,0,80.8-25.7,97.9-62.6H236.3z"/>
<path class="st0" d="M202.9,212.5c-5.7,2.9-12.1,4.5-19,4.5c-23.2,0-42-18.8-42-42c0-23.2,18.8-42,42-42c9.2,0,17.7,3,24.6,7.9h12.6
	c-11.6-16.1-30.6-26.6-52-26.6c-35.4,0-64,28.7-64,64s28.7,64,64,64c22.8,0,42.8-11.9,54.2-29.9H202.9z"/>
<g>
	<path class="st0" d="M205.8,170.2c0.2-6.5-4.4-9.7-10.8-9.7c-11.6,0-16,9.1-17.4,15.2c-1.3,6.1-0.8,15.2,10.9,15.2
		c5.9,0,12.3-2.8,15-10h13.4c-4.3,13.2-16.3,18.6-30.7,18.6c-16.4,0-25.2-7.1-21.6-23.9c3.6-16.8,15.3-23.9,31.8-23.9
		c10.9,0,24.1,2.8,22.7,18.3H205.8z"/>
</g>
<g>
	<path class="st0" d="M263.6,170.4c0.2-6.2-4.3-9.3-10.4-9.3c-11.2,0-15.4,8.7-16.6,14.6c-1.3,5.9-0.7,14.6,10.4,14.6
		c5.7,0,11.8-2.7,14.4-9.6h12.8c-4.1,12.6-15.6,17.8-29.4,17.8c-15.8,0-24.2-6.8-20.7-22.9c3.4-16.1,14.7-22.9,30.5-22.9
		c10.4,0,23.2,2.7,21.7,17.6H263.6z"/>
</g>
</svg>
