<?xml version="1.0" encoding="UTF-8" standalone="no"?>
<!-- Created with Inkscape (http://www.inkscape.org/) -->

<svg
   version="1.1"
   id="svg1"
   width="277.79065"
   height="277.79199"
   viewBox="0 0 277.79065 277.79199"
   xmlns="http://www.w3.org/2000/svg"
   xmlns:svg="http://www.w3.org/2000/svg">
  <defs
     id="defs1">
    <clipPath
       clipPathUnits="userSpaceOnUse"
       id="clipPath2">
      <path
         d="M 0,216 H 216 V 0 H 0 Z"
         transform="translate(-108.48831,-189.4458)"
         id="path2" />
    </clipPath>
    <clipPath
       clipPathUnits="userSpaceOnUse"
       id="clipPath4">
      <path
         d="M 0,216 H 216 V 0 H 0 Z"
         transform="translate(-107.87451,-166.0903)"
         id="path4" />
    </clipPath>
    <clipPath
       clipPathUnits="userSpaceOnUse"
       id="clipPath6">
      <path
         d="M 0,216 H 216 V 0 H 0 Z"
         transform="translate(-122.55081,-62.185502)"
         id="path6" />
    </clipPath>
  </defs>
  <g
     id="layer-MC0"
     transform="translate(-5.7550735,-4.7389341)">
    <path
       id="path1"
       d="m 0,0 c -44.76,0 -81.172,-36.413 -81.172,-81.172 0,-44.758 36.412,-81.172 81.172,-81.172 44.758,0 81.171,36.414 81.171,81.172 C 81.171,-36.413 44.758,0 0,0 m 0,-185.344 c -57.439,0 -104.172,46.732 -104.172,104.172 C -104.172,-23.731 -57.439,23 0,23 57.439,23 104.171,-23.731 104.171,-81.172 104.171,-138.612 57.439,-185.344 0,-185.344"
       style="fill:#231f20;fill-opacity:1;fill-rule:nonzero;stroke:none"
       transform="matrix(1.3333333,0,0,-1.3333333,144.65107,35.4056)"
       clip-path="url(#clipPath2)" />
    <path
       id="path3"
       d="m 0,0 c 36.202,0.024 37.813,-28.821 37.813,-32.06 0,-5.36 -1.615,-9.501 -2.92,-12.961 -1.117,-2.959 -3.594,-5.637 -5.955,-8.641 -1.934,-2.459 -3.838,-4.109 -6.188,-5.84 -2.349,-1.733 -3.595,-3.918 -5.683,-5.649 -2.09,-1.732 -4.361,-4.043 -5.643,-7.078 -1.074,-2.545 -0.515,-4.66 -0.931,-8.012 v -5.363 H -9.713 l -0.116,6.602 c 0.312,4.8 0.353,8.755 1.763,11.996 1.41,3.238 2.196,3.929 4.075,6.218 1.879,2.29 4.539,4.841 6.888,7.241 1.873,1.914 3.939,4.131 5.717,5.807 1.773,1.676 4.047,3.394 5.144,5.404 1.096,2.01 2.203,5.043 2.102,8.059 0,5.135 -1.854,8.984 -4.203,11.442 -2.348,2.455 -6.387,3.235 -10.56,3.235 -2.82,0 -5.247,-0.586 -7.284,-1.757 -2.036,-1.173 -3.708,-2.739 -5.012,-4.692 -1.307,-1.955 -2.27,-4.244 -2.897,-6.867 -0.627,-2.625 -0.627,0.391 -0.627,-2.625 l -21.864,1.596 C -35.285,-28.325 -32.286,-0.021 0,0"
       style="fill:#231f20;fill-opacity:1;fill-rule:nonzero;stroke:none"
       transform="matrix(1.3333333,0,0,-1.3333333,143.83267,66.546267)"
       clip-path="url(#clipPath4)" />
    <path
       id="path5"
       d="m 0,0 c 0,-7.223 -5.855,-13.078 -13.078,-13.078 -7.223,0 -13.079,5.855 -13.079,13.078 0,7.223 5.856,13.078 13.079,13.078 C -5.855,13.078 0,7.223 0,0"
       style="fill:#231f20;fill-opacity:1;fill-rule:nonzero;stroke:none"
       transform="matrix(1.3333333,0,0,-1.3333333,163.40107,205.086)"
       clip-path="url(#clipPath6)" />
  </g>
</svg>
