<?xml version="1.0" encoding="UTF-8" standalone="no"?>
<!-- Created with Inkscape (http://www.inkscape.org/) -->

<svg
   version="1.1"
   id="svg1"
   width="288"
   height="288"
   viewBox="0 0 288 288"
   xmlns="http://www.w3.org/2000/svg"
   xmlns:svg="http://www.w3.org/2000/svg">
  <defs
     id="defs1">
    <clipPath
       clipPathUnits="userSpaceOnUse"
       id="clipPath3">
      <path
         d="M 0,216 H 216 V 0 H 0 Z"
         transform="translate(-84.584005,-129.04641)"
         id="path3" />
    </clipPath>
    <clipPath
       clipPathUnits="userSpaceOnUse"
       id="clipPath5">
      <path
         d="M 0,216 H 216 V 0 H 0 Z"
         transform="translate(-107.1094,-144.2563)"
         id="path5" />
    </clipPath>
    <clipPath
       clipPathUnits="userSpaceOnUse"
       id="clipPath7">
      <path
         d="M 0,216 H 216 V 0 H 0 Z"
         transform="translate(-135.7129,-123.18801)"
         id="path7" />
    </clipPath>
    <clipPath
       clipPathUnits="userSpaceOnUse"
       id="clipPath9">
      <path
         d="M 0,216 H 216 V 0 H 0 Z"
         transform="translate(-170.34081,-137.6001)"
         id="path9" />
    </clipPath>
    <clipPath
       clipPathUnits="userSpaceOnUse"
       id="clipPath11">
      <path
         d="M 0,216 H 216 V 0 H 0 Z"
         transform="translate(-64.148402,-80.6113)"
         id="path11" />
    </clipPath>
    <clipPath
       clipPathUnits="userSpaceOnUse"
       id="clipPath13">
      <path
         d="M 0,216 H 216 V 0 H 0 Z"
         transform="translate(-92.091805,-88.2559)"
         id="path13" />
    </clipPath>
    <clipPath
       clipPathUnits="userSpaceOnUse"
       id="clipPath15">
      <path
         d="M 0,216 H 216 V 0 H 0 Z"
         id="path15" />
    </clipPath>
    <clipPath
       clipPathUnits="userSpaceOnUse"
       id="clipPath17">
      <path
         d="M 0,216 H 216 V 0 H 0 Z"
         transform="translate(-127.6816,-88.2559)"
         id="path17" />
    </clipPath>
    <clipPath
       clipPathUnits="userSpaceOnUse"
       id="clipPath19">
      <path
         d="M 0,216 H 216 V 0 H 0 Z"
         transform="translate(-168.498,-88.2559)"
         id="path19" />
    </clipPath>
    <clipPath
       clipPathUnits="userSpaceOnUse"
       id="clipPath21">
      <path
         d="M 0,216 H 216 V 0 H 0 Z"
         id="path21" />
    </clipPath>
    <clipPath
       clipPathUnits="userSpaceOnUse"
       id="clipPath23">
      <path
         d="M 0,216 H 216 V 0 H 0 Z"
         transform="translate(-114.0957,-96.6748)"
         id="path23" />
    </clipPath>
  </defs>
  <g
     id="layer-MC0">
    <path
       id="path1"
       d="m 0,0 v -32.015 h 19.143 v -7.261 H -8.637 V 0 Z"
       style="fill:#231f20;fill-opacity:1;fill-rule:nonzero;stroke:none"
       transform="matrix(1.3333333,0,0,-1.3333333,59.934933,81.208933)" />
    <path
       id="path2"
       d="m 0,0 c -0.495,-0.165 -1.027,-0.302 -1.596,-0.412 -0.568,-0.11 -1.164,-0.202 -1.787,-0.275 -0.625,-0.074 -1.248,-0.166 -1.871,-0.275 -0.587,-0.11 -1.164,-0.258 -1.732,-0.44 -0.569,-0.184 -1.065,-0.432 -1.486,-0.743 -0.422,-0.312 -0.76,-0.707 -1.017,-1.183 -0.257,-0.477 -0.386,-1.082 -0.386,-1.815 0,-0.697 0.129,-1.284 0.386,-1.76 0.257,-0.477 0.604,-0.853 1.046,-1.128 0.439,-0.275 0.953,-0.467 1.539,-0.577 0.586,-0.111 1.191,-0.165 1.816,-0.165 1.539,0 2.731,0.255 3.574,0.769 0.844,0.514 1.467,1.128 1.871,1.844 0.403,0.715 0.651,1.438 0.743,2.173 0.091,0.732 0.137,1.319 0.137,1.759 V 0.687 C 0.907,0.394 0.494,0.165 0,0 m -15.43,11.029 c 0.806,1.211 1.833,2.182 3.08,2.916 1.246,0.733 2.649,1.256 4.208,1.568 1.559,0.311 3.126,0.467 4.704,0.467 1.43,0 2.878,-0.101 4.345,-0.302 1.466,-0.202 2.806,-0.597 4.016,-1.183 1.21,-0.587 2.2,-1.402 2.971,-2.448 0.77,-1.045 1.155,-2.43 1.155,-4.152 V -6.903 c 0,-1.285 0.072,-2.513 0.22,-3.686 0.146,-1.174 0.403,-2.054 0.77,-2.64 H 2.117 c -0.146,0.44 -0.265,0.888 -0.357,1.347 -0.092,0.458 -0.156,0.926 -0.193,1.403 -1.247,-1.284 -2.713,-2.182 -4.4,-2.695 -1.688,-0.514 -3.411,-0.77 -5.171,-0.77 -1.357,0 -2.623,0.165 -3.796,0.495 -1.174,0.33 -2.2,0.843 -3.08,1.54 -0.88,0.696 -1.567,1.576 -2.063,2.64 -0.494,1.064 -0.743,2.329 -0.743,3.796 0,1.614 0.284,2.943 0.853,3.988 0.568,1.046 1.302,1.879 2.2,2.503 0.899,0.624 1.926,1.09 3.08,1.403 1.157,0.31 2.321,0.558 3.494,0.742 1.173,0.184 2.329,0.33 3.465,0.441 1.137,0.11 2.146,0.275 3.026,0.495 0.881,0.219 1.576,0.54 2.09,0.963 0.513,0.42 0.751,1.035 0.715,1.842 0,0.843 -0.137,1.513 -0.413,2.008 -0.274,0.495 -0.641,0.88 -1.099,1.155 -0.459,0.275 -0.991,0.458 -1.596,0.55 -0.605,0.091 -1.256,0.138 -1.952,0.138 -1.54,0 -2.751,-0.33 -3.631,-0.99 -0.88,-0.661 -1.394,-1.761 -1.54,-3.301 h -7.811 c 0.11,1.833 0.568,3.355 1.375,4.565"
       style="fill:#231f20;fill-opacity:1;fill-rule:nonzero;stroke:none"
       transform="matrix(1.3333333,0,0,-1.3333333,112.77867,115.93813)"
       clip-path="url(#clipPath3)" />
    <path
       id="path4"
       d="m 0,0 v -5.28 h 0.109 c 0.368,0.88 0.862,1.695 1.486,2.447 0.624,0.752 1.339,1.394 2.145,1.926 0.807,0.531 1.668,0.943 2.586,1.237 0.916,0.293 1.869,0.441 2.86,0.441 0.513,0 1.082,-0.092 1.706,-0.276 v -7.261 c -0.368,0.074 -0.808,0.138 -1.321,0.193 -0.514,0.054 -1.008,0.082 -1.485,0.082 -1.43,0 -2.641,-0.238 -3.631,-0.715 C 3.465,-7.683 2.668,-8.334 2.063,-9.158 1.457,-9.983 1.025,-10.946 0.77,-12.047 0.513,-13.146 0.385,-14.339 0.385,-15.622 V -28.439 H -7.426 V 0 Z"
       style="fill:#231f20;fill-opacity:1;fill-rule:nonzero;stroke:none"
       transform="matrix(1.3333333,0,0,-1.3333333,142.81253,95.658267)"
       clip-path="url(#clipPath5)" />
    <path
       id="path6"
       d="m 0,0 c 0.844,0.44 1.541,1.026 2.091,1.761 0.55,0.733 0.962,1.567 1.237,2.503 0.276,0.934 0.413,1.916 0.413,2.942 0,1.174 -0.11,2.283 -0.33,3.328 -0.22,1.046 -0.587,1.971 -1.1,2.779 -0.514,0.805 -1.192,1.448 -2.036,1.924 -0.843,0.477 -1.907,0.716 -3.19,0.716 -1.101,0 -2.045,-0.221 -2.833,-0.66 -0.789,-0.44 -1.449,-1.037 -1.981,-1.788 -0.531,-0.752 -0.917,-1.614 -1.154,-2.585 -0.24,-0.973 -0.358,-1.99 -0.358,-3.054 0,-1.026 0.1,-2.044 0.303,-3.053 0.201,-1.008 0.549,-1.917 1.045,-2.722 0.495,-0.808 1.145,-1.468 1.953,-1.981 0.805,-0.513 1.815,-0.77 3.025,-0.77 1.101,0 2.071,0.221 2.915,0.66 m 10.699,-9.461 c -0.311,-1.467 -0.98,-2.833 -2.008,-4.099 -1.027,-1.264 -2.511,-2.337 -4.455,-3.218 -1.944,-0.879 -4.548,-1.32 -7.811,-1.32 -1.394,0 -2.816,0.176 -4.263,0.523 -1.449,0.35 -2.769,0.889 -3.961,1.623 -1.192,0.734 -2.182,1.678 -2.971,2.833 -0.789,1.155 -1.238,2.54 -1.347,4.153 h 7.756 c 0.367,-1.467 1.082,-2.484 2.146,-3.054 1.063,-0.567 2.291,-0.852 3.686,-0.852 2.199,0 3.803,0.66 4.812,1.98 1.008,1.321 1.494,2.99 1.458,5.006 v 3.74 H 3.631 C 2.787,-3.649 1.586,-4.758 0.027,-5.473 c -1.558,-0.715 -3.199,-1.073 -4.923,-1.073 -2.126,0 -3.959,0.376 -5.5,1.128 -1.541,0.751 -2.805,1.778 -3.795,3.08 -0.991,1.302 -1.715,2.824 -2.174,4.567 -0.459,1.741 -0.688,3.583 -0.688,5.528 0,1.833 0.266,3.602 0.799,5.307 0.53,1.707 1.311,3.209 2.337,4.511 1.026,1.302 2.302,2.338 3.823,3.109 1.522,0.77 3.274,1.155 5.254,1.155 1.869,0 3.511,-0.349 4.923,-1.045 1.411,-0.697 2.594,-1.871 3.548,-3.521 h 0.11 v 3.795 h 7.426 V -5.556 c 0,-1.136 -0.156,-2.438 -0.468,-3.905"
       style="fill:#231f20;fill-opacity:1;fill-rule:nonzero;stroke:none"
       transform="matrix(1.3333333,0,0,-1.3333333,180.95053,123.74933)"
       clip-path="url(#clipPath7)" />
    <path
       id="path8"
       d="m 0,0 c -0.935,1.026 -2.356,1.541 -4.263,1.541 -1.248,0 -2.283,-0.212 -3.108,-0.633 -0.825,-0.422 -1.485,-0.944 -1.981,-1.567 -0.495,-0.624 -0.843,-1.284 -1.044,-1.981 -0.203,-0.697 -0.322,-1.32 -0.359,-1.87 H 1.952 C 1.586,-2.53 0.935,-1.026 0,0 m -8.829,-14.962 c 1.174,-1.137 2.861,-1.705 5.06,-1.705 1.577,0 2.934,0.394 4.072,1.183 1.135,0.788 1.833,1.623 2.091,2.503 h 6.875 c -1.1,-3.412 -2.788,-5.85 -5.061,-7.317 -2.273,-1.467 -5.024,-2.2 -8.251,-2.2 -2.237,0 -4.255,0.357 -6.052,1.072 -1.797,0.716 -3.318,1.734 -4.564,3.054 -1.248,1.32 -2.211,2.896 -2.889,4.73 -0.679,1.833 -1.017,3.851 -1.017,6.051 0,2.127 0.347,4.107 1.044,5.942 0.697,1.833 1.687,3.419 2.971,4.757 1.283,1.338 2.815,2.393 4.594,3.163 1.777,0.771 3.748,1.156 5.913,1.156 2.421,0 4.528,-0.468 6.325,-1.403 C 4.079,5.089 5.556,3.832 6.711,2.256 7.866,0.679 8.7,-1.118 9.214,-3.135 9.728,-5.152 9.91,-7.261 9.765,-9.461 h -20.52 c 0.111,-2.53 0.752,-4.364 1.926,-5.501"
       style="fill:#231f20;fill-opacity:1;fill-rule:nonzero;stroke:none"
       transform="matrix(1.3333333,0,0,-1.3333333,227.12107,104.5332)"
       clip-path="url(#clipPath9)" />
    <path
       id="path10"
       d="M 0,0 C 0.99,0 1.943,0.072 2.86,0.219 3.777,0.365 4.584,0.65 5.281,1.072 5.977,1.492 6.537,2.09 6.959,2.859 7.38,3.629 7.592,4.639 7.592,5.885 7.592,7.131 7.38,8.141 6.959,8.91 6.537,9.68 5.977,10.275 5.281,10.699 4.584,11.119 3.777,11.404 2.86,11.551 1.943,11.697 0.99,11.771 0,11.771 H -6.711 V 0 Z m 2.365,18.482 c 2.457,0 4.547,-0.357 6.272,-1.072 1.722,-0.717 3.125,-1.66 4.208,-2.834 1.081,-1.174 1.87,-2.512 2.365,-4.015 0.495,-1.504 0.743,-3.063 0.743,-4.676 0,-1.576 -0.248,-3.127 -0.743,-4.649 C 14.715,-0.285 13.926,-1.633 12.845,-2.807 11.762,-3.98 10.359,-4.924 8.637,-5.639 6.912,-6.354 4.822,-6.713 2.365,-6.713 h -9.076 v -14.082 h -8.637 v 39.277 z"
       style="fill:#231f20;fill-opacity:1;fill-rule:nonzero;stroke:none"
       transform="matrix(1.3333333,0,0,-1.3333333,85.5312,180.51827)"
       clip-path="url(#clipPath11)" />
    <path
       id="path12"
       d="m 0,0 v -5.279 h 0.111 c 0.366,0.879 0.861,1.695 1.485,2.447 0.623,0.752 1.338,1.393 2.145,1.926 0.806,0.531 1.669,0.943 2.585,1.236 0.916,0.293 1.871,0.441 2.862,0.441 0.512,0 1.081,-0.091 1.705,-0.275 V -6.766 C 10.525,-6.691 10.086,-6.627 9.572,-6.572 9.059,-6.518 8.563,-6.49 8.087,-6.49 6.656,-6.49 5.446,-6.729 4.457,-7.205 3.467,-7.682 2.668,-8.334 2.063,-9.158 1.459,-9.982 1.027,-10.945 0.771,-12.047 0.514,-13.146 0.386,-14.338 0.386,-15.621 V -28.439 H -7.426 V 0 Z"
       style="fill:#231f20;fill-opacity:1;fill-rule:nonzero;stroke:none"
       transform="matrix(1.3333333,0,0,-1.3333333,122.78907,170.32547)"
       clip-path="url(#clipPath13)" />
    <path
       id="path14"
       d="m 114.096,59.816 h -7.812 v 28.439 h 7.812 z"
       style="fill:#231f20;fill-opacity:1;fill-rule:nonzero;stroke:none"
       transform="matrix(1.3333333,0,0,-1.3333333,0,288)"
       clip-path="url(#clipPath15)" />
    <path
       id="path16"
       d="m 0,0 v -3.959 h 0.166 c 0.99,1.648 2.273,2.85 3.85,3.602 1.577,0.752 3.191,1.128 4.841,1.128 2.09,0 3.804,-0.285 5.143,-0.853 1.338,-0.568 2.393,-1.357 3.164,-2.365 0.77,-1.01 1.311,-2.237 1.622,-3.686 0.312,-1.449 0.468,-3.053 0.468,-4.812 v -17.494 h -7.812 v 16.062 c 0,2.348 -0.366,4.1 -1.1,5.254 -0.734,1.156 -2.035,1.732 -3.905,1.732 -2.127,0 -3.667,-0.632 -4.621,-1.896 -0.955,-1.266 -1.43,-3.348 -1.43,-6.244 V -28.439 H -7.426 V 0 Z"
       style="fill:#231f20;fill-opacity:1;fill-rule:nonzero;stroke:none"
       transform="matrix(1.3333333,0,0,-1.3333333,170.24213,170.32547)"
       clip-path="url(#clipPath17)" />
    <path
       id="path18"
       d="m 0,0 v -5.225 h -5.721 v -14.082 c 0,-1.32 0.221,-2.201 0.66,-2.64 0.44,-0.442 1.321,-0.66 2.641,-0.66 0.44,0 0.861,0.017 1.266,0.054 0.402,0.035 0.787,0.092 1.154,0.164 v -6.05 c -0.66,-0.11 -1.395,-0.182 -2.2,-0.219 -0.808,-0.037 -1.595,-0.055 -2.365,-0.055 -1.21,0 -2.357,0.082 -3.439,0.246 -1.082,0.166 -2.035,0.487 -2.86,0.963 -0.825,0.477 -1.477,1.156 -1.952,2.035 -0.478,0.881 -0.715,2.035 -0.715,3.467 v 16.777 h -4.732 V 0 h 4.732 v 8.527 h 7.81 V 0 Z"
       style="fill:#231f20;fill-opacity:1;fill-rule:nonzero;stroke:none"
       transform="matrix(1.3333333,0,0,-1.3333333,224.664,170.32547)"
       clip-path="url(#clipPath19)" />
    <path
       id="path20"
       d="m 216.234,-0.682 h -216 v 216 h 216 z"
       style="fill:none;stroke:#231f20;stroke-width:2;stroke-linecap:butt;stroke-linejoin:miter;stroke-miterlimit:10;stroke-dasharray:none;stroke-opacity:1"
       transform="matrix(1.3333333,0,0,-1.3333333,0,288)"
       clip-path="url(#clipPath21)" />
    <path
       id="path22"
       d="m 0,0 c 0,-2.371 -1.911,-4.294 -4.27,-4.294 -2.357,0 -4.269,1.923 -4.269,4.294 0,2.372 1.912,4.294 4.269,4.294 C -1.911,4.294 0,2.372 0,0"
       style="fill:#231f20;fill-opacity:1;fill-rule:nonzero;stroke:none"
       transform="matrix(1.3333333,0,0,-1.3333333,152.1276,159.10027)"
       clip-path="url(#clipPath23)" />
  </g>
</svg>
