<?xml version="1.0" encoding="UTF-8" standalone="no"?>
<!-- Created with Inkscape (http://www.inkscape.org/) -->

<svg
   version="1.1"
   id="svg1"
   width="288"
   height="288"
   viewBox="0 0 288 288"
   xmlns="http://www.w3.org/2000/svg"
   xmlns:svg="http://www.w3.org/2000/svg">
  <defs
     id="defs1">
    <clipPath
       clipPathUnits="userSpaceOnUse"
       id="clipPath2">
      <path
         d="M 0,216 H 216 V 0 H 0 Z"
         transform="translate(-74.674302,-166.0293)"
         id="path2" />
    </clipPath>
    <clipPath
       clipPathUnits="userSpaceOnUse"
       id="clipPath4">
      <path
         d="M 0,216 H 216 V 0 H 0 Z"
         transform="translate(-129.3652,-102.28521)"
         id="path4" />
    </clipPath>
    <clipPath
       clipPathUnits="userSpaceOnUse"
       id="clipPath6">
      <path
         d="M 0,216 H 216 V 0 H 0 Z"
         transform="translate(-89.4292,-87.474602)"
         id="path6" />
    </clipPath>
    <clipPath
       clipPathUnits="userSpaceOnUse"
       id="clipPath8">
      <path
         d="M 0,216 H 216 V 0 H 0 Z"
         transform="translate(-171.166,-28.752901)"
         id="path8" />
    </clipPath>
    <clipPath
       clipPathUnits="userSpaceOnUse"
       id="clipPath10">
      <path
         d="M 0,216 H 216 V 0 H 0 Z"
         id="path10" />
    </clipPath>
  </defs>
  <g
     id="layer-MC0">
    <path
       id="path1"
       d="m 0,0 c 8.513,0 15.414,6.9 15.414,15.414 0,8.513 -6.901,15.413 -15.414,15.413 -8.513,0 -15.413,-6.9 -15.413,-15.413 C -15.413,6.9 -8.513,0 0,0"
       style="fill:#231f20;fill-opacity:1;fill-rule:nonzero;stroke:none"
       transform="matrix(1.3333333,0,0,-1.3333333,99.565733,66.6276)"
       clip-path="url(#clipPath2)" />
    <path
       id="path3"
       d="M 0,0 C 0,1.05 -0.246,2.038 -0.674,2.923 L -0.607,2.996 -0.9,3.354 C -1.264,3.986 -1.727,4.552 -2.268,5.03 l -42.11,51.633 -10e-4,-10e-4 c -1.822,2.423 -5.275,4.026 -10.581,4.026 -6.034,0 -9.668,-1.035 -11.233,-3.45 l -0.001,-0.003 C -66.316,57.048 -87.136,19.501 -87.136,19.501 l 4.636,-29.694 c -0.011,-0.161 1.351,-8.059 8.128,-6.976 7.533,1.203 5.707,9.475 5.707,9.475 l -3.442,22.025 8.397,16.222 -0.458,-41.271 c 0,0 -19.37,-59.67 -19.546,-61.258 -0.338,-3.033 0.899,-8.009 5.021,-9.921 3.178,-1.475 6.217,-1.989 10.283,0.058 3.31,1.666 6.995,13.211 11.817,26.371 7.531,20.559 15.996,45.408 15.996,45.408 l -0.061,35.123 -12.119,13.772 c 0,0 -1.021,1.384 -0.36,2.075 1.126,1.177 2.766,-1.373 2.766,-1.373 l 36.416,-43.45 C -11.406,-8.282 0,-10.71 0,0"
       style="fill:#231f20;fill-opacity:1;fill-rule:nonzero;stroke:none"
       transform="matrix(1.3333333,0,0,-1.3333333,172.48693,151.61973)"
       clip-path="url(#clipPath4)" />
    <path
       id="path5"
       d="M 0,0 -9.081,-25.138 3.204,-59.921 c 0.177,-0.877 0.474,-1.709 0.858,-2.49 l 0.009,-0.027 h 0.004 c 1.667,-3.362 7.337,-8.256 14.569,-4.081 7.198,4.159 2.481,14.836 -0.682,22.002 C 9.493,-25.339 0,-0.001 0,0"
       style="fill:#231f20;fill-opacity:1;fill-rule:nonzero;stroke:none"
       transform="matrix(1.3333333,0,0,-1.3333333,119.23893,171.3672)"
       clip-path="url(#clipPath6)" />
    <path
       id="path7"
       d="m 0,0 c -10.467,17.291 -41.014,67.178 -41.014,67.178 0,0 -0.002,-0.797 -1.095,-1.647 -1.094,-0.849 -1.647,-0.645 -1.647,-0.645 0,0 30.676,-48.613 41.887,-65.636 2.16,-3.277 2.695,-6.787 4.592,-5.629 C 3.848,-5.691 2.02,-3.338 0,0"
       style="fill:#231f20;fill-opacity:1;fill-rule:nonzero;stroke:none"
       transform="matrix(1.3333333,0,0,-1.3333333,228.22133,249.6628)"
       clip-path="url(#clipPath8)" />
    <path
       id="path9"
       d="m 216.23,-0.026 h -216 v 216 h 216 z"
       style="fill:none;stroke:#231f20;stroke-width:2;stroke-linecap:butt;stroke-linejoin:miter;stroke-miterlimit:10;stroke-dasharray:none;stroke-opacity:1"
       transform="matrix(1.3333333,0,0,-1.3333333,0,288)"
       clip-path="url(#clipPath10)" />
  </g>
</svg>
