<?xml version="1.0" encoding="UTF-8" standalone="no"?>
<!-- Created with Inkscape (http://www.inkscape.org/) -->

<svg
   version="1.1"
   id="svg1"
   width="288"
   height="288"
   viewBox="0 0 288 288"
   xmlns="http://www.w3.org/2000/svg"
   xmlns:svg="http://www.w3.org/2000/svg">
  <defs
     id="defs1">
    <clipPath
       clipPathUnits="userSpaceOnUse"
       id="clipPath2">
      <path
         d="M 0,216 H 216 V 0 H 0 Z"
         transform="translate(-49.980501,-107.8608)"
         id="path2" />
    </clipPath>
    <clipPath
       clipPathUnits="userSpaceOnUse"
       id="clipPath4">
      <path
         d="M 0,216 H 216 V 0 H 0 Z"
         transform="translate(-164.7891,-100.5234)"
         id="path4" />
    </clipPath>
    <clipPath
       clipPathUnits="userSpaceOnUse"
       id="clipPath6">
      <path
         d="M 0,216 H 216 V 0 H 0 Z"
         id="path6" />
    </clipPath>
  </defs>
  <g
     id="layer-MC0">
    <path
       id="path1"
       d="m 0,0 c 0,-6.585 1.271,-19.326 13.054,-19.341 13.288,-0.02 13.984,12.756 13.984,19.62 0,6.401 -1.1,19.004 -13.776,18.994 C 1.277,19.264 0,6.494 0,0 m -28.387,-0.07 c 0,11.271 2.802,20.56 10.409,27.865 7.607,7.307 17.881,10.959 30.823,10.959 14.796,0 25.974,-4.291 33.535,-12.871 6.076,-6.912 8.113,-15.424 8.113,-25.535 0,-11.363 -2.767,-20.676 -10.305,-27.935 -7.538,-7.26 -17.962,-10.889 -31.274,-10.889 -11.874,0 -21.476,3.016 -28.804,9.045 -9,7.469 -12.497,17.256 -12.497,29.361"
       style="fill:#231f20;fill-opacity:1;fill-rule:nonzero;stroke:none"
       transform="matrix(1.3333333,0,0,-1.3333333,66.640667,144.1856)"
       clip-path="url(#clipPath2)" />
    <path
       id="path3"
       d="m 0,0 c -1.102,-5.996 -2.286,-12.018 -11.411,-12.004 -11.783,0.016 -13.054,12.756 -13.054,19.341 0,6.495 1.278,19.264 13.262,19.274 8.669,0.007 9.921,-5.885 11.112,-11.658 h 29.708 c -0.856,6.99 -3.141,13.08 -7.702,18.267 -7.561,8.58 -18.739,12.871 -33.535,12.871 -12.942,0 -23.216,-3.652 -30.822,-10.959 -7.608,-7.304 -10.41,-16.593 -10.41,-27.865 0,-12.105 3.498,-21.892 12.498,-29.361 7.328,-6.029 16.929,-9.045 28.803,-9.045 13.312,0 23.737,3.629 31.275,10.889 5.761,5.551 8.729,12.303 9.81,20.25 z"
       style="fill:#231f20;fill-opacity:1;fill-rule:nonzero;stroke:none"
       transform="matrix(1.3333333,0,0,-1.3333333,219.7188,153.9688)"
       clip-path="url(#clipPath4)" />
    <path
       id="path5"
       d="M 216,0 H 0 v 216 h 216 z"
       style="fill:none;stroke:#231f20;stroke-width:2;stroke-linecap:butt;stroke-linejoin:miter;stroke-miterlimit:10;stroke-dasharray:none;stroke-opacity:1"
       transform="matrix(1.3333333,0,0,-1.3333333,0,288)"
       clip-path="url(#clipPath6)" />
  </g>
</svg>
