<?xml version="1.0" encoding="UTF-8" standalone="no"?>
<!-- Created with Inkscape (http://www.inkscape.org/) -->

<svg
   version="1.1"
   id="svg1"
   width="288"
   height="288"
   viewBox="0 0 288 288"
   xmlns="http://www.w3.org/2000/svg"
   xmlns:svg="http://www.w3.org/2000/svg">
  <defs
     id="defs1">
    <clipPath
       clipPathUnits="userSpaceOnUse"
       id="clipPath2">
      <path
         d="M 0,216 H 216 V 0 H 0 Z"
         id="path2" />
    </clipPath>
    <clipPath
       clipPathUnits="userSpaceOnUse"
       id="clipPath4">
      <path
         d="M 0,216 H 216 V 0 H 0 Z"
         transform="translate(-147.7461,-100.1055)"
         id="path4" />
    </clipPath>
    <clipPath
       clipPathUnits="userSpaceOnUse"
       id="clipPath6">
      <path
         d="M 0,216 H 216 V 0 H 0 Z"
         transform="translate(-69.797902,-121.0918)"
         id="path6" />
    </clipPath>
  </defs>
  <g
     id="layer-MC0">
    <path
       id="path1"
       d="M 216.125,-0.341 H 0.4 V 215.4 h 215.725 z"
       style="fill:none;stroke:#231f20;stroke-width:2;stroke-linecap:butt;stroke-linejoin:miter;stroke-miterlimit:10;stroke-dasharray:none;stroke-opacity:1"
       transform="matrix(1.3333333,0,0,-1.3333333,0,288)"
       clip-path="url(#clipPath2)" />
    <path
       id="path3"
       d="m 0,0 c -1.559,-2.022 -5.687,-3.22 -9.72,-4.671 -3.985,-1.434 -5.996,-2.725 -5.996,-2.725 0,0 -3.88,3.221 -5.229,4.037 -1.001,0.604 -4.175,1.213 -4.175,1.213 0,0 -1.306,4.939 -1.972,6.27 -0.659,1.319 -2.81,4.333 -2.81,4.333 0,0 3.451,3.207 4.593,4.546 1.066,1.249 3.723,5.806 3.723,5.806 0,0 5.447,-0.413 7.264,-0.235 2.017,0.199 8.074,1.749 8.074,1.749 0,0 1.477,-2.76 3.607,-5.31 C -0.398,12.331 2.579,10.742 2.49,8.835 2.361,6.1 1.013,1.313 0,0 M 43.742,28.913 C 41.822,34.95 37.193,44.034 37.193,44.034 21.729,35.282 18.687,37.54 15.396,37.479 c -1.714,-0.031 -5.074,0.769 -9.58,1.019 -3.597,0.198 -11.298,-3.519 -18.822,-5.79 -7.714,-2.328 -15.231,-3.673 -15.921,-6.057 -0.588,-2.03 -6.552,-14.404 -6.39,-16.916 0.093,-1.451 0.837,-1.462 0.837,-1.462 L -35.477,3.12 c 0,0 -0.671,-6.752 0.276,-8.725 2.18,-4.535 16.222,-12.572 16.222,-12.572 0,0 8.907,-0.21 11.447,0.15 3.575,0.506 7.626,3.651 7.626,3.651 2.867,-0.728 -11.277,-11.097 -13.611,-11.867 -1.652,-0.544 -8.381,-0.092 -11.034,-0.584 -1.918,-0.356 -5.26,7.061 -11.219,6.254 -3.764,-0.511 -4.384,-4.599 -4.384,-4.599 0,0 2.978,-2.328 6.379,-5.011 1.991,-1.569 4.182,-3.796 5.984,-4.38 13.766,-4.472 29.638,4.357 29.638,4.357 0,0 -4.718,-5.058 -11.601,-9.398 -4.438,-2.799 -13.451,-4.235 -18.745,-6.013 -4.425,-1.487 -4.323,-6.927 -2.106,-7.075 19.847,-1.322 36.84,14.442 38.617,15.459 5.015,2.871 -12.797,-15.979 -13.238,-19.032 -0.514,-3.571 3.103,-5.594 3.103,-5.594 0,0 1.668,1.885 4.346,5.159 2.678,3.272 9.859,10.633 11.097,12.474 1.239,1.842 4.03,7.986 6.713,10.85 2.682,2.861 10.58,20.566 12.311,28.266 1.65,7.344 11.324,12.269 12.146,12.47 0.821,0.202 1.141,15.607 -0.748,21.553"
       style="fill:#231f20;fill-opacity:1;fill-rule:nonzero;stroke:none"
       transform="matrix(1.3333333,0,0,-1.3333333,196.9948,154.526)"
       clip-path="url(#clipPath4)" />
    <path
       id="path5"
       d="m 0,0 c 1.559,2.022 5.687,3.219 9.72,4.67 3.986,1.435 5.996,2.726 5.996,2.726 0,0 3.88,-3.222 5.23,-4.037 1,-0.605 4.174,-1.214 4.174,-1.214 0,0 1.307,-4.938 1.972,-6.27 0.659,-1.318 2.811,-4.333 2.811,-4.333 0,0 -3.451,-3.207 -4.593,-4.545 -1.067,-1.25 -3.724,-5.807 -3.724,-5.807 0,0 -5.447,0.414 -7.263,0.235 -2.018,-0.199 -8.074,-1.748 -8.074,-1.748 -10e-4,0 -1.477,2.76 -3.607,5.31 -2.243,2.682 -5.221,4.27 -5.131,6.178 C -2.36,-6.101 -1.013,-1.314 0,0 m 13.437,25.897 c 1.651,0.55 8.38,0.122 11.031,0.622 1.917,0.362 5.283,-7.045 11.24,-6.216 3.764,0.524 4.369,4.614 4.369,4.614 0,0 -2.986,2.318 -6.396,4.988 -1.996,1.563 -4.196,3.783 -5.998,4.361 -13.782,4.425 -29.623,-4.458 -29.623,-4.458 0,0 4.701,5.074 11.568,9.438 4.43,2.814 13.437,4.279 18.725,6.076 4.419,1.503 4.3,6.942 2.084,7.082 -19.854,1.255 -36.793,-14.568 -38.565,-15.59 -5.008,-2.887 12.742,16.023 13.172,19.077 0.502,3.572 -3.121,5.583 -3.121,5.583 0,0 -1.662,-1.891 -4.329,-5.173 -2.667,-3.281 -9.824,-10.666 -11.056,-12.512 -1.23,-1.847 -3.994,-8 -6.66,-10.872 C -22.789,30.045 -30.63,12.315 -32.333,4.609 -33.958,-2.74 -43.616,-7.698 -44.437,-7.903 c -0.82,-0.205 -1.087,-15.601 0.822,-21.539 1.938,-6.032 6.6,-15.1 6.6,-15.1 15.435,8.805 18.467,6.558 21.754,6.629 1.716,0.037 5.076,-0.751 9.583,-0.985 3.6,-0.187 11.288,3.556 18.802,5.852 7.708,2.355 15.221,3.725 15.902,6.111 0.58,2.033 6.503,14.416 6.332,16.927 -0.097,1.452 -0.841,1.46 -0.841,1.46 l 0.979,5.157 c 0,0 0.649,6.754 -0.306,8.724 -2.194,4.527 -16.265,12.515 -16.265,12.515 0,0 -8.906,0.181 -11.446,-0.186 -3.574,-0.518 -7.613,-3.678 -7.613,-3.678 -2.869,0.718 11.238,11.136 13.571,11.913"
       style="fill:#231f20;fill-opacity:1;fill-rule:nonzero;stroke:none"
       transform="matrix(1.3333333,0,0,-1.3333333,93.063867,126.54427)"
       clip-path="url(#clipPath6)" />
  </g>
</svg>
