<?xml version="1.0" encoding="UTF-8" standalone="no"?>
<!-- Created with Inkscape (http://www.inkscape.org/) -->

<svg
   version="1.1"
   id="svg1"
   width="288"
   height="288"
   viewBox="0 0 288 288"
   xmlns="http://www.w3.org/2000/svg"
   xmlns:svg="http://www.w3.org/2000/svg">
  <defs
     id="defs1">
    <clipPath
       clipPathUnits="userSpaceOnUse"
       id="clipPath2">
      <path
         d="M 0,216 H 216 V 0 H 0 Z"
         id="path2" />
    </clipPath>
    <clipPath
       clipPathUnits="userSpaceOnUse"
       id="clipPath4">
      <path
         d="M 0,216 H 216 V 0 H 0 Z"
         transform="translate(-73.739702,-167.2148)"
         id="path4" />
    </clipPath>
    <clipPath
       clipPathUnits="userSpaceOnUse"
       id="clipPath6">
      <path
         d="M 0,216 H 216 V 0 H 0 Z"
         transform="translate(-77.280804,-167.3018)"
         id="path6" />
    </clipPath>
    <clipPath
       clipPathUnits="userSpaceOnUse"
       id="clipPath8">
      <path
         d="M 0,216 H 216 V 0 H 0 Z"
         transform="translate(-77.251502,-56.425801)"
         id="path8" />
    </clipPath>
    <clipPath
       clipPathUnits="userSpaceOnUse"
       id="clipPath10">
      <path
         d="M 0,216 H 216 V 0 H 0 Z"
         transform="translate(-109.26951,-132.23391)"
         id="path10" />
    </clipPath>
    <clipPath
       clipPathUnits="userSpaceOnUse"
       id="clipPath12">
      <path
         d="M 0,216 H 216 V 0 H 0 Z"
         transform="translate(-120.252,-121.1172)"
         id="path12" />
    </clipPath>
    <clipPath
       clipPathUnits="userSpaceOnUse"
       id="clipPath14">
      <path
         d="M 0,216 H 216 V 0 H 0 Z"
         transform="translate(-131.1768,-109.63821)"
         id="path14" />
    </clipPath>
    <clipPath
       clipPathUnits="userSpaceOnUse"
       id="clipPath16">
      <path
         d="M 0,216 H 216 V 0 H 0 Z"
         transform="translate(-142.2451,-98.969702)"
         id="path16" />
    </clipPath>
    <clipPath
       clipPathUnits="userSpaceOnUse"
       id="clipPath18">
      <path
         d="M 0,216 H 216 V 0 H 0 Z"
         transform="translate(-153.0391,-88.159202)"
         id="path18" />
    </clipPath>
  </defs>
  <g
     id="layer-MC0">
    <path
       id="path1"
       d="M 216,-0.001 H 0 v 216 h 216 z"
       style="fill:none;stroke:#231f20;stroke-width:2.002;stroke-linecap:butt;stroke-linejoin:miter;stroke-miterlimit:10;stroke-dasharray:none;stroke-opacity:1"
       transform="matrix(1.3333333,0,0,-1.3333333,0,288)"
       clip-path="url(#clipPath2)" />
    <path
       id="path3"
       d="M 0,0 C 0,0 -32.723,-2.998 -34.32,-73.388 -36.081,-151.063 0,-153.402 0,-153.402 l 0.087,42.581 c 0,0 -3.579,0.133 -4.385,1.824 -4.745,9.953 -4.143,17.35 -5.192,36.034 -0.531,9.472 1.274,19.934 3.958,25.883 0.574,1.271 5.532,3.197 5.532,3.197 z"
       style="fill:#231f20;fill-opacity:1;fill-rule:nonzero;stroke:none"
       transform="matrix(1.3333333,0,0,-1.3333333,98.3196,65.046933)"
       clip-path="url(#clipPath4)" />
    <path
       id="path5"
       d="m 0,0 v -44.129 c 0,0 6.204,-0.319 11.373,-0.079 1.982,0.093 3.76,0.553 4.976,2.289 0.932,1.33 0.336,4.24 0.506,8.47 0.445,11.113 0.156,28.748 0.156,28.748 0,0 -0.519,3.99 -3.737,4.614 C 10.056,0.537 0,0 0,0"
       style="fill:#231f20;fill-opacity:1;fill-rule:nonzero;stroke:none"
       transform="matrix(1.3333333,0,0,-1.3333333,103.04107,64.930933)"
       clip-path="url(#clipPath6)" />
    <path
       id="path7"
       d="m 0,0 v -42.856 c 0,0 6.205,-0.23 11.374,0.003 1.981,0.088 3.674,0.705 4.889,2.38 0.932,1.285 0.423,4.094 0.592,8.178 0.445,10.731 0.156,27.756 0.156,27.756 0,0 -0.518,3.853 -3.736,4.457 C 10.057,0.521 0,0 0,0"
       style="fill:#231f20;fill-opacity:1;fill-rule:nonzero;stroke:none"
       transform="matrix(1.3333333,0,0,-1.3333333,103.002,212.7656)"
       clip-path="url(#clipPath8)" />
    <path
       id="path9"
       d="m 0,0 -5.791,5.211 c 1.121,1.408 4.065,4.918 3.741,8.807 -0.381,4.587 -3.346,7.87 -3.46,7.975 l 5.19,5.59 C 0.215,27.118 5.439,22.111 5.492,14.278 5.545,6.303 0.621,0.77 0,0"
       style="fill:#231f20;fill-opacity:1;fill-rule:nonzero;stroke:none"
       transform="matrix(1.3333333,0,0,-1.3333333,145.69267,111.68813)"
       clip-path="url(#clipPath10)" />
    <path
       id="path11"
       d="m 0,0 -5.396,5.397 c 0.066,0.076 7.625,7.443 8.045,18.699 0.436,11.608 -8.001,20.093 -8.09,20.174 l 5.304,5.652 C 0.355,49.487 10.942,38.105 10.192,24.096 9.356,8.492 0.381,0.419 0,0"
       style="fill:#231f20;fill-opacity:1;fill-rule:nonzero;stroke:none"
       transform="matrix(1.3333333,0,0,-1.3333333,160.336,126.5104)"
       clip-path="url(#clipPath12)" />
    <path
       id="path13"
       d="M 0,0 -5.482,6.151 C -5.414,6.261 6.945,15.176 6.949,35.942 6.951,54.924 -5.35,66.671 -5.441,66.788 l 5.392,5.47 C 0.441,71.629 15.746,56.525 14.75,34.644 13.723,12.087 0.383,0.607 0,0"
       style="fill:#231f20;fill-opacity:1;fill-rule:nonzero;stroke:none"
       transform="matrix(1.3333333,0,0,-1.3333333,174.9024,141.81573)"
       clip-path="url(#clipPath14)" />
    <path
       id="path15"
       d="m 0,0 -5.396,5.357 c 0.068,0.143 17.17,18.678 16.985,39.742 -0.248,28.1 -17.11,42.887 -17.202,43.039 l 5.908,6.165 C 0.785,93.49 21.04,76.367 19.132,43.867 17.468,15.542 0.383,0.785 0,0"
       style="fill:#231f20;fill-opacity:1;fill-rule:nonzero;stroke:none"
       transform="matrix(1.3333333,0,0,-1.3333333,189.66013,156.0404)"
       clip-path="url(#clipPath16)" />
    <path
       id="path17"
       d="m 0,0 -4.966,5.035 c 0.067,0.177 21.503,21.974 21.538,51.962 0.041,34.255 -21.579,53.067 -21.669,53.253 l 5.046,5.242 c 0.492,-1 24.852,-22.541 24.08,-60.01 C 23.33,21.479 0.381,0.966 0,0"
       style="fill:#231f20;fill-opacity:1;fill-rule:nonzero;stroke:none"
       transform="matrix(1.3333333,0,0,-1.3333333,204.05213,170.4544)"
       clip-path="url(#clipPath18)" />
  </g>
</svg>
