<?xml version="1.0" encoding="UTF-8" standalone="no"?>
<!-- Created with Inkscape (http://www.inkscape.org/) -->

<svg
   version="1.1"
   id="svg1"
   width="288"
   height="288"
   viewBox="0 0 288 288"
   xmlns="http://www.w3.org/2000/svg"
   xmlns:svg="http://www.w3.org/2000/svg">
  <defs
     id="defs1">
    <clipPath
       clipPathUnits="userSpaceOnUse"
       id="clipPath2">
      <path
         d="M 0,216 H 216 V 0 H 0 Z"
         transform="translate(-86.114305,-13.8213)"
         id="path2" />
    </clipPath>
    <clipPath
       clipPathUnits="userSpaceOnUse"
       id="clipPath4">
      <path
         d="M 0,216 H 216 V 0 H 0 Z"
         transform="translate(-92.195305,-186.4624)"
         id="path4" />
    </clipPath>
    <clipPath
       clipPathUnits="userSpaceOnUse"
       id="clipPath6">
      <path
         d="M 0,216 H 216 V 0 H 0 Z"
         transform="translate(-192.3447,-61.411104)"
         id="path6" />
    </clipPath>
    <clipPath
       clipPathUnits="userSpaceOnUse"
       id="clipPath8">
      <path
         d="M 0,216 H 216 V 0 H 0 Z"
         id="path8" />
    </clipPath>
  </defs>
  <g
     id="layer-MC0">
    <path
       id="path1"
       d="m 0,0 c -34.292,0 -62.19,27.896 -62.19,62.189 0,20.549 11.68,42.571 31.34,54.179 l 1.581,-15.162 C -43.85,88.512 -49.191,78.113 -49.191,62.189 -49.191,35.617 -26.572,13.252 0,12.998 28.746,12.723 46.658,32.154 50.035,54.486 L 58.887,39.615 C 51.051,17.562 28.523,0 0,0"
       style="fill:#231f20;fill-opacity:1;fill-rule:nonzero;stroke:none"
       transform="matrix(1.3333333,0,0,-1.3333333,114.81907,269.5716)"
       clip-path="url(#clipPath2)" />
    <path
       id="path3"
       d="m 0,0 c 0,-9.056 -7.341,-16.396 -16.396,-16.396 -9.054,0 -16.394,7.34 -16.394,16.396 0,9.055 7.34,16.395 16.394,16.395 C -7.341,16.395 0,9.055 0,0"
       style="fill:#231f20;fill-opacity:1;fill-rule:nonzero;stroke:none"
       transform="matrix(1.3333333,0,0,-1.3333333,122.92707,39.383467)"
       clip-path="url(#clipPath4)" />
    <path
       id="path5"
       d="m 0,0 c 0,3.838 -3.109,6.947 -6.947,6.947 -1.043,0 -2.03,-0.236 -2.916,-0.648 l -11.201,-6.522 c 0,0 -21.325,39.272 -28.811,46.519 -2.416,2.338 -30.578,2.017 -46.74,1.772 l -0.707,9.668 28.759,0.023 c 4.606,-0.323 9.34,2.342 9.325,6.792 -0.018,5.677 -3.662,7.784 -8.266,8.108 -0.324,0.022 -24.83,0.006 -30.911,0.002 l -1.167,15.956 c 0,9.054 -6.34,16.394 -15.395,16.394 -9.054,0 -16.395,-7.34 -16.395,-16.394 0,-0.733 0.065,-1.449 0.157,-2.156 l 3.486,-47.639 c 0,-9.054 7.34,-16.394 16.395,-16.394 0.554,0 54.561,0.656 54.561,0.656 L -30,-22.562 -2.805,-5.568 C -1.105,-4.301 0,-2.281 0,0"
       style="fill:#231f20;fill-opacity:1;fill-rule:nonzero;stroke:none"
       transform="matrix(1.3333333,0,0,-1.3333333,256.4596,206.11853)"
       clip-path="url(#clipPath6)" />
    <path
       id="path7"
       d="M 216.134,0.339 H 0.135 v 216 h 215.999 z"
       style="fill:none;stroke:#231f20;stroke-width:1;stroke-linecap:butt;stroke-linejoin:miter;stroke-miterlimit:10;stroke-dasharray:none;stroke-opacity:1"
       transform="matrix(1.3333333,0,0,-1.3333333,0,288)"
       clip-path="url(#clipPath8)" />
  </g>
</svg>
